<?xml version="1.0" encoding="UTF-8"?>
<!DOCTYPE svg PUBLIC "-//W3C//DTD SVG 1.1//EN" "http://www.w3.org/Graphics/SVG/1.1/DTD/svg11.dtd">
<svg xmlns="http://www.w3.org/2000/svg" version="1.1" width="1600px" height="1600px" style="shape-rendering:geometricPrecision; text-rendering:geometricPrecision; image-rendering:optimizeQuality; fill-rule:evenodd; clip-rule:evenodd" xmlns:xlink="http://www.w3.org/1999/xlink">
<g><path style="opacity:1" fill="#b43c1b" d="M 462.5,234.5 C 521.104,230.488 576.771,241.322 629.5,267C 680.325,292.82 725.825,325.986 766,366.5C 772.631,375.629 779.797,384.295 787.5,392.5C 799.879,376.947 813.212,362.113 827.5,348C 859.386,319.451 894.053,294.784 931.5,274C 997.414,238.459 1067.41,226.459 1141.5,238C 1235.36,250.835 1312.86,293.001 1374,364.5C 1424.8,430.226 1451.47,504.892 1454,588.5C 1456.49,672.883 1437.15,751.883 1396,825.5C 1366.6,876.605 1331.6,923.605 1291,966.5C 1245.27,1013.24 1197.44,1057.41 1147.5,1099C 1080.25,1153.58 1013.58,1208.91 947.5,1265C 904.135,1304.03 863.135,1345.37 824.5,1389C 797.79,1406.46 771.79,1405.46 746.5,1386C 713.265,1347.1 677.598,1310.43 639.5,1276C 620.979,1260.24 602.646,1244.24 584.5,1228C 518.798,1174.48 453.465,1120.48 388.5,1066C 358.398,1039.23 328.898,1011.73 300,983.5C 251.376,934.565 210.043,880.232 176,820.5C 113.536,702.998 103.869,581.332 147,455.5C 188.889,352.946 262.723,285.113 368.5,252C 399.384,242.988 430.718,237.155 462.5,234.5 Z M 483.5,355.5 C 513.669,355.376 542.335,361.876 569.5,375C 612.747,396.288 651.414,423.955 685.5,458C 704.448,477.276 722.282,497.442 739,518.5C 758.21,540.458 781.71,546.958 809.5,538C 815.157,535.507 820.49,532.507 825.5,529C 839.96,511.538 854.793,494.372 870,477.5C 909.604,434.542 955.437,400.042 1007.5,374C 1043.52,357.188 1081.18,351.855 1120.5,358C 1184.54,365.097 1237.7,392.597 1280,440.5C 1310.13,479.198 1327.13,523.198 1331,572.5C 1337.33,643.506 1322.66,709.839 1287,771.5C 1266.75,805.993 1243.08,837.993 1216,867.5C 1176.04,909.468 1134.2,949.301 1090.5,987C 1025.58,1041.25 961.245,1096.25 897.5,1152C 859.452,1186.04 822.619,1221.54 787,1258.5C 752.169,1221.86 716.002,1186.69 678.5,1153C 606.461,1090.63 534.128,1028.63 461.5,967C 422.009,932.176 384.509,895.342 349,856.5C 311.934,815.074 282.934,768.407 262,716.5C 239.44,652.41 236.44,587.41 253,521.5C 278.475,441.36 331.641,389.526 412.5,366C 435.941,359.948 459.608,356.448 483.5,355.5 Z"/></g>
</svg>
