<?xml version="1.0" standalone="no"?>
<!DOCTYPE svg PUBLIC "-//W3C//DTD SVG 20010904//EN"
 "http://www.w3.org/TR/2001/REC-SVG-20010904/DTD/svg10.dtd">
<svg version="1.0" xmlns="http://www.w3.org/2000/svg"
 width="1024.000000pt" height="1024.000000pt" viewBox="0 0 1024.000000 1024.000000"
 preserveAspectRatio="xMidYMid meet">

<g transform="translate(0.000000,1024.000000) scale(0.100000,-0.100000)"
fill="#000000" stroke="none">
<path d="M3303 9475 c-129 -28 -165 -55 -469 -359 -245 -246 -284 -289 -311
-346 -74 -155 -68 -322 15 -459 28 -46 417 -442 1595 -1626 l1559 -1565 -1559
-1565 c-1178 -1184 -1567 -1580 -1595 -1626 -83 -137 -89 -304 -15 -459 27
-57 66 -100 311 -346 253 -253 288 -285 353 -317 138 -68 280 -70 421 -6 64
29 145 107 2069 2032 1628 1627 2008 2012 2033 2058 79 148 79 310 0 458 -25
46 -405 431 -2033 2058 -1920 1920 -2005 2004 -2068 2032 -63 29 -164 52 -219
50 -14 0 -53 -7 -87 -14z"/>
</g>
</svg>
