<?xml version="1.0" encoding="UTF-8"?>
<!DOCTYPE svg PUBLIC "-//W3C//DTD SVG 1.1//EN" "http://www.w3.org/Graphics/SVG/1.1/DTD/svg11.dtd">
<svg xmlns="http://www.w3.org/2000/svg" version="1.1" width="24px" height="24px" viewBox="0 0 1600 1600" style="shape-rendering:geometricPrecision; text-rendering:geometricPrecision; image-rendering:optimizeQuality; fill-rule:evenodd; clip-rule:evenodd" xmlns:xlink="http://www.w3.org/1999/xlink">
<g><path style="opacity:1" fill="#b43c1b" d="M 462.5,234.5 C 521.104,230.488 576.771,241.322 629.5,267C 680.325,292.82 725.825,325.986 766,366.5C 772.631,375.629 779.797,384.295 787.5,392.5C 799.879,376.947 813.212,362.113 827.5,348C 859.386,319.451 894.053,294.784 931.5,274C 997.414,238.459 1067.41,226.459 1141.5,238C 1235.36,250.835 1312.86,293.001 1374,364.5C 1424.8,430.226 1451.47,504.892 1454,588.5C 1456.49,672.883 1437.15,751.883 1396,825.5C 1366.6,876.605 1331.6,923.605 1291,966.5C 1245.27,1013.24 1197.44,1057.41 1147.5,1099C 1080.25,1153.58 1013.58,1208.91 947.5,1265C 904.135,1304.03 863.135,1345.37 824.5,1389C 797.79,1406.46 771.79,1405.46 746.5,1386C 713.265,1347.1 677.598,1310.43 639.5,1276C 620.979,1260.24 602.646,1244.24 584.5,1228C 518.798,1174.48 453.465,1120.48 388.5,1066C 358.398,1039.23 328.898,1011.73 300,983.5C 251.376,934.565 210.043,880.232 176,820.5C 113.536,702.998 103.869,581.332 147,455.5C 188.889,352.946 262.723,285.113 368.5,252C 399.384,242.988 430.718,237.155 462.5,234.5 Z"/></g>
</svg>
